<?xml version="1.0" encoding="UTF-8" standalone="no"?>
<!-- Created with Inkscape (http://www.inkscape.org/) -->

<svg
   xmlns:dc="http://purl.org/dc/elements/1.1/"
   xmlns:cc="http://creativecommons.org/ns#"
   xmlns:rdf="http://www.w3.org/1999/02/22-rdf-syntax-ns#"
   xmlns:svg="http://www.w3.org/2000/svg"
   xmlns="http://www.w3.org/2000/svg"
   xmlns:sodipodi="http://sodipodi.sourceforge.net/DTD/sodipodi-0.dtd"
   xmlns:inkscape="http://www.inkscape.org/namespaces/inkscape"
   id="svg2"
   version="1.1"
   inkscape:version="0.91 r13725"
   xml:space="preserve"
   width="753.04498"
   height="192.70876"
   viewBox="0 0 753.04498 192.70876"
   sodipodi:docname="COEXIST Original.svg"><metadata
     id="metadata8"><rdf:RDF><cc:Work
         rdf:about=""><dc:format>image/svg+xml</dc:format><dc:type
           rdf:resource="http://purl.org/dc/dcmitype/StillImage" /><dc:title></dc:title></cc:Work></rdf:RDF></metadata><defs
     id="defs6"><clipPath
       clipPathUnits="userSpaceOnUse"
       id="clipPath20"><path
         d="m 0,154.167 602.436,0 L 602.436,0 0,0 0,154.167 Z"
         id="path22"
         inkscape:connector-curvature="0" /></clipPath></defs><sodipodi:namedview
     pagecolor="#ffffff"
     bordercolor="#666666"
     borderopacity="1"
     objecttolerance="10"
     gridtolerance="10"
     guidetolerance="10"
     inkscape:pageopacity="0"
     inkscape:pageshadow="2"
     inkscape:window-width="640"
     inkscape:window-height="480"
     id="namedview4"
     showgrid="false"
     inkscape:zoom="2.14861"
     inkscape:cx="314.62201"
     inkscape:cy="74.563852"
     inkscape:current-layer="g10" /><g
     id="g10"
     inkscape:groupmode="layer"
     inkscape:label="COEXIST Original"
     transform="matrix(1.25,0,0,-1.25,0,192.70875)"><g
       id="g12"
       transform="translate(105.6458,123.9849)"><path
         d="m 0,0 4.446,-12.865 13.608,-0.253 -10.861,-8.204 3.965,-13.02 -11.158,7.793 -11.158,-7.793 3.965,13.02 -10.861,8.204 13.608,0.253 L 0,0 Z"
         style="fill:#373535;fill-opacity:1;fill-rule:nonzero;stroke:none"
         id="path14"
         inkscape:connector-curvature="0" /></g><g
       id="g16"><g
         id="g18"
         clip-path="url(#clipPath20)"><g
           id="g24"
           transform="translate(90.9592,41.522)"><path
             d="m 0,0 c -29.662,0 -53.708,21.322 -53.708,47.625 0,26.301 24.046,47.624 53.708,47.624 7.241,0 14.135,-1.29 20.437,-3.596 0.611,0.428 1.119,0.889 1.541,1.368 -10.837,7.958 -24.463,12.718 -39.287,12.718 -35.281,0 -63.883,-26.864 -63.883,-60.003 0,-33.138 28.602,-60.002 63.883,-60.002 19.316,0 36.614,8.063 48.327,20.788 C 30.579,7.024 30.135,7.497 29.689,7.947 21.185,2.93 10.981,0 0,0"
             style="fill:#373535;fill-opacity:1;fill-rule:nonzero;stroke:none"
             id="path26"
             inkscape:connector-curvature="0" /></g><g
           id="g28"
           transform="translate(130.5369,72.9917)"><path
             d="m 0,0 c 0,17.152 12.804,31.398 29.656,34.283 l 0,-29.808 -21.844,-26.14 C 2.927,-15.718 0,-8.191 0,0 m 41.825,-13.002 14.197,-15.894 c -4.189,-2.737 -9.007,-4.634 -14.197,-5.46 l 0,21.354 z M 29.656,-34.283 c -4.564,0.78 -8.831,2.39 -12.626,4.671 l 12.626,15.109 0,-19.78 z M 71.9,0 c 0,-7.714 -2.592,-14.837 -6.973,-20.607 l -23.102,25.864 0,29.099 C 58.884,31.638 71.9,17.295 71.9,0 M 35.531,45.317 c -25.955,0 -46.995,-20.383 -46.995,-45.527 0,-25.142 21.04,-45.525 46.995,-45.525 25.954,0 46.994,20.383 46.994,45.525 0,25.144 -21.04,45.527 -46.994,45.527"
             style="fill:#373535;fill-opacity:1;fill-rule:nonzero;stroke:none"
             id="path30"
             inkscape:connector-curvature="0" /></g><g
           id="g32"
           transform="translate(230.8923,81.3853)"><path
             d="M 0,0 C 3.606,14.198 16.149,24.829 31.291,25.553 45.031,24.829 56.412,14.198 59.685,0 L 0,0 Z m 59.864,24.712 1.412,2.339 8.406,13.921 6.478,-3.209 -2.938,19.301 -19.508,-8.184 6.068,-3.006 -9.39,-13.205 -0.863,-1.213 c -5.363,2.518 -11.306,3.991 -17.572,4.176 -0.441,0.012 -0.88,0.033 -1.324,0.033 -24.68,0 -44.687,-20.1 -44.687,-44.896 0,-23.303 17.67,-42.456 40.282,-44.678 l 0,-10.289 -7.134,0 0,-6.714 7.134,0 0,-7.974 10.07,0 0,7.974 6.294,0 0,6.714 -6.294,0 0,10.164 c 15.371,0.889 28.757,8.711 36.724,20.209 l -3.48,2.52 -7.464,5.411 c -5.946,-9.878 -16.768,-16.487 -29.137,-16.487 -0.553,0 -1.103,0.018 -1.65,0.042 -17.449,0.836 -31.447,14.822 -32.295,32.269 l 61.599,0 6.29,0 8.414,0 c 0.005,0.28 0.022,0.558 0.022,0.839 0,3.164 -0.33,6.251 -0.95,9.231 -2.036,9.79 -7.252,18.401 -14.507,24.712"
             style="fill:#373535;fill-opacity:1;fill-rule:nonzero;stroke:none"
             id="path34"
             inkscape:connector-curvature="0" /></g><g
           id="g36"
           transform="translate(384.1751,64.1274)"><path
             d="M 0,0 5.201,-8.552 -5.2,-8.552 0,0 Z m -27.4,-23.253 -2.052,3.374 4.103,0 -2.051,-3.374 z m -32.604,14.701 5.202,8.553 5.201,-8.553 -10.403,0 z m 0.002,38.908 10.401,0 -5.201,-8.552 -5.2,8.552 z m 32.602,14.701 2.051,-3.374 -4.103,0 2.052,3.374 z M -6.629,10.901 -18.46,-8.552 l -17.881,0 -11.831,19.454 11.831,19.454 17.881,0 11.831,-19.455 z M 5.203,30.356 0,21.803 l -5.2,8.553 10.403,0 z m 1.427,-19.454 18.72,30.781 -37.44,0 -15.31,25.175 -15.311,-25.175 -37.439,0 18.719,-30.781 -18.719,-30.781 37.439,0 15.311,-25.176 15.31,25.176 37.44,0 -18.72,30.781 z"
             style="fill:#373535;fill-opacity:1;fill-rule:nonzero;stroke:none"
             id="path38"
             inkscape:connector-curvature="0" /></g><g
           id="g40"
           transform="translate(585.6624,113.8506)"><path
             d="m 0,0 -22.682,0 0,28.304 5.141,6.365 -27.693,0 5.138,-6.362 0,-28.307 -22.679,0 -7.006,5.35 0,-24.337 7.006,5.35 22.679,0 0,-69.323 -5.138,-6.362 27.693,0 -5.141,6.364 0,69.321 22.682,0 7.006,-5.35 0,24.337 L 0,0 Z"
             style="fill:#373535;fill-opacity:1;fill-rule:nonzero;stroke:none"
             id="path42"
             inkscape:connector-curvature="0" /></g><path
           d="m 426.638,28.094 -13.009,0 0,88.116 13.009,0 0,-88.116 z"
           style="fill:#373535;fill-opacity:1;fill-rule:nonzero;stroke:none"
           id="path44"
           inkscape:connector-curvature="0" /><g
           id="g46"
           transform="translate(431.6887,137.3496)"><path
             d="m 0,0 c -0.008,-3.705 -1.686,-7.002 -4.317,-9.206 l -2.2,7.129 6.212,4.752 C -0.108,1.815 -0.001,0.92 0,0 m -12.031,-6.281 5.667,-4.312 c -1.688,-0.91 -3.612,-1.431 -5.664,-1.434 -2.055,0.003 -3.98,0.526 -5.671,1.436 l 5.668,4.31 z m -11.723,8.954 4.467,-3.418 1.743,-1.332 -2.196,-7.129 c -2.633,2.204 -4.311,5.502 -4.319,9.206 0.003,0.919 0.109,1.814 0.305,2.673 m 10.566,9.288 -2.272,-7.306 -7.652,-0.014 c 1.675,3.992 5.435,6.884 9.924,7.32 m 0.187,-7.306 0.97,3.123 0.972,-3.123 -1.942,0 z m 2.671,-2.348 1.085,-3.513 -2.786,-2.123 -2.784,2.125 1.087,3.511 3.398,0 z m -3.639,-7.112 -2.557,-1.945 0.973,3.154 1.584,-1.209 z m -2.836,5.121 -2.596,1.986 3.213,0.005 -0.617,-1.991 z m 6.714,-5.121 1.585,1.209 0.973,-3.154 -2.558,1.945 z m 5.433,7.107 -2.597,-1.988 -0.616,1.991 3.213,-0.003 z m 3.714,2.339 -7.657,0.012 -2.275,7.308 c 4.493,-0.435 8.254,-3.327 9.932,-7.32 m -11.084,9.676 c -7.908,0 -14.318,-6.408 -14.318,-14.317 0,-4.843 2.407,-9.124 6.085,-11.712 0.043,-0.062 0.097,-0.117 0.16,-0.16 0.066,-0.045 0.137,-0.076 0.211,-0.094 2.256,-1.484 4.96,-2.352 7.862,-2.352 2.892,0 5.592,0.862 7.846,2.341 0.081,0.019 0.16,0.052 0.23,0.103 0.065,0.045 0.12,0.102 0.163,0.167 3.676,2.588 6.078,6.87 6.078,11.707 -0.003,7.909 -6.412,14.317 -14.317,14.317"
             style="fill:#373535;fill-opacity:1;fill-rule:nonzero;stroke:none"
             id="path48"
             inkscape:connector-curvature="0" /></g><g
           id="g50"
           transform="translate(514.2024,54.189)"><path
             d="m 0,0 c -0.213,-0.432 -0.429,-0.858 -0.655,-1.281 -0.23,-0.429 -0.472,-0.854 -0.719,-1.275 0.076,0.771 0.125,1.547 0.127,2.344 -0.01,6.559 -2.681,10.14 -4.164,12.151 l -0.16,0.217 -0.01,0.01 -0.037,0.047 c -4.734,5.936 -12.585,9.586 -18.332,11.563 l -23.262,7.553 c -7.46,2.444 -11.417,5.762 -11.436,10.262 0,3.487 2.616,5.837 5.797,7.242 3.207,1.425 7.092,2.014 10.134,2.02 12.564,0.043 17.275,-5.161 22.456,-12.679 l 0.877,-1.254 1.432,0.606 13.417,5.715 c 0.129,-0.165 0.255,-0.334 0.381,-0.501 0.125,-0.167 0.247,-0.337 0.368,-0.505 5.014,-6.841 7.967,-15.198 7.967,-24.236 l 0.003,0 C 4.181,11.554 2.676,5.451 0,0 m -1.445,43.232 c -0.122,0.169 -0.246,0.335 -0.369,0.504 -0.379,0.514 -0.768,1.018 -1.167,1.515 l -0.448,0.714 c -7.662,12.215 -21.161,18.683 -39.288,18.694 -10.077,0.002 -18.891,-2.559 -25.149,-6.765 -6.262,-4.216 -9.955,-10.027 -9.96,-16.642 l 0,-0.002 c 0,-1.583 0.144,-3.008 0.368,-4.309 0.731,-4.248 2.411,-7.015 3.504,-8.433 4.058,-5.225 13.109,-9.593 20.16,-11.832 l 20.658,-6.735 c 12.724,-4.06 13.102,-9.173 13.033,-11.065 0.004,-4.347 -2.928,-7.321 -6.64,-9.109 -3.723,-1.804 -8.293,-2.544 -11.998,-2.549 -15.776,-0.017 -22.61,8.803 -25.182,14.043 l -0.802,1.62 -1.677,-0.753 -10.222,-4.589 -2.28,-1.023 -1.49,-0.671 -1.976,-0.884 1.194,-1.767 c 2.753,-4.065 5.764,-8.535 13.63,-13.233 8.338,-5.061 20.182,-6.898 27.693,-6.894 6.153,0 16.301,0.007 26.299,6.23 4.91,3.012 8.381,6.79 10.361,11.195 0.468,0.574 0.923,1.161 1.363,1.758 0.378,0.512 0.747,1.036 1.103,1.565 4.679,6.956 7.411,15.258 7.411,24.184 l 0.003,0 C 6.684,27.378 3.676,36.07 -1.445,43.232 M -39.127,6.161 c 3.023,0 5.474,-2.379 5.474,-5.311 0,-2.935 -2.451,-5.313 -5.474,-5.313 -3.021,0 -5.472,2.378 -5.472,5.313 0,2.932 2.451,5.311 5.472,5.311 m -38.094,-7.553 10.296,4.622 2.791,1.254 1.337,-2.693 c 2.5,-4.992 8.806,-13.343 24.056,-13.356 3.534,-0.005 7.965,0.725 11.439,2.418 3.486,1.712 5.942,4.259 5.947,8.023 -0.074,1.594 0.307,5.743 -12.181,9.914 l -20.652,6.733 c -7.192,2.309 -16.364,6.648 -20.762,12.254 -1.043,1.345 -2.525,3.791 -3.399,7.357 -0.308,1.254 -0.532,2.641 -0.64,4.181 -3.588,-6.324 -5.639,-13.584 -5.639,-21.316 0,-7.363 1.861,-14.302 5.135,-20.411 l 2.272,1.02 z m 38.094,46.559 c -3.021,0 -5.472,-2.379 -5.472,-5.312 0,-2.933 2.451,-5.312 5.472,-5.312 3.023,0 5.474,2.379 5.474,5.312 0,2.933 -2.451,5.312 -5.474,5.312"
             style="fill:#373535;fill-opacity:1;fill-rule:nonzero;stroke:none"
             id="path52"
             inkscape:connector-curvature="0" /></g></g></g></g></svg>